<?xml version="1.0" encoding="UTF-8"?>
<svg width="32" height="32" viewBox="0 0 32 32" fill="none" xmlns="http://www.w3.org/2000/svg">
    <!-- Gradientes -->
    <defs>
        <linearGradient id="grad" x1="0%" y1="0%" x2="100%" y2="100%">
            <stop offset="0%" style="stop-color:#1976D2;stop-opacity:1" />
            <stop offset="100%" style="stop-color:#2196F3;stop-opacity:1" />
        </linearGradient>
        <linearGradient id="accent" x1="0%" y1="0%" x2="100%" y2="100%">
            <stop offset="0%" style="stop-color:#64B5F6;stop-opacity:1" />
            <stop offset="100%" style="stop-color:#90CAF9;stop-opacity:1" />
        </linearGradient>
    </defs>
    
    <!-- Fundo principal -->
    <circle cx="16" cy="16" r="14" fill="url(#grad)"/>
    
    <!-- Círculo central -->
    <circle cx="16" cy="16" r="8" fill="url(#accent)"/>
    
    <!-- Elementos decorativos -->
    <path d="M16 6L16 10" stroke="#90CAF9" stroke-width="2"/>
    <path d="M16 22L16 26" stroke="#90CAF9" stroke-width="2"/>
    <path d="M6 16L10 16" stroke="#90CAF9" stroke-width="2"/>
    <path d="M22 16L26 16" stroke="#90CAF9" stroke-width="2"/>
    
    <!-- Linhas onduladas -->
    <path d="M8 20C8 20 12 24 16 20C20 16 24 20 24 20" stroke="#90CAF9" stroke-width="2" stroke-linecap="round"/>
    <path d="M10 18C10 18 14 22 16 18C18 14 22 18 22 18" stroke="#90CAF9" stroke-width="2" stroke-linecap="round"/>
</svg> 